<?xml version="1.0" encoding="utf-8"?>
<!-- Generator: Adobe Illustrator 24.0.1, SVG Export Plug-In . SVG Version: 6.00 Build 0)  -->
<svg version="1.1" xmlns="http://www.w3.org/2000/svg" xmlns:xlink="http://www.w3.org/1999/xlink" x="0px" y="0px"
	 viewBox="0 0 300 300" style="enable-background:new 0 0 300 300;" xml:space="preserve">
<style type="text/css">
	.st0{display:none;}
	.st1{display:inline;fill:#010202;}
	.st2{fill:#FFFFFF;}
	.st3{fill:none;stroke:#FFFFFF;stroke-miterlimit:10;}
</style>
<g id="Layer_6" class="st0">
	<rect x="0.44" class="st1" width="300" height="300"/>
</g>
<g id="Layer_2">
</g>
<g id="Layer_7">
</g>
<g id="Layer_3">
</g>
<g id="Layer_8">
	<g>
		<path class="st2" d="M64.96,300.63c-2.98,0-5.95-0.98-8.43-2.92c-4.51-3.52-6.35-9.33-4.69-14.81l15.05-50.97
			C26.01,208.47,1.78,169.84,1.78,127.59C1.78,58.22,68.06,1.78,149.52,1.78s147.74,56.44,147.74,125.81
			c0,69.38-66.28,125.82-147.74,125.82c-6.96,0-13.91-0.41-20.73-1.23l-56.31,46.21l-0.44,0.26
			C69.84,299.98,67.4,300.63,64.96,300.63z M149.52,15.78c-73.74,0-133.74,50.16-133.74,111.81c0,38.67,23.43,74.08,62.68,94.71
			l5.08,2.67l-18.01,61.01l59.09-48.49l3.03,0.42c7.15,0.99,14.51,1.49,21.87,1.49c73.74,0,133.74-50.16,133.74-111.82
			C283.26,65.94,223.26,15.78,149.52,15.78z"/>
		<g>
			<path class="st3" d="M82.23,113.78c0,0.62-0.34,0.93-1.02,0.93c-1.18,0-5.83-0.23-13.96-0.7c-0.19,7.82-0.28,13.28-0.28,16.38
				c0,3.65,0.15,9.14,0.44,16.47c0.29,7.33,0.44,12.82,0.44,16.47c0,0.59-0.14,0.96-0.42,1.11c-0.09,0.06-0.53,0.14-1.3,0.23
				c-1.86,0.25-4.58,0.37-8.16,0.37c-3.99,0-6.79-0.12-8.4-0.37c-0.87-0.15-1.3-0.63-1.3-1.44c0-3.65,0.15-9.12,0.46-16.42
				c0.31-7.3,0.46-12.77,0.46-16.42c0-2.41-0.12-7.79-0.37-16.14c-6.19,0.62-11.12,0.93-14.8,0.93c-0.5,0-0.74-0.16-0.74-0.46
				c0-0.4,0.22-1.59,0.65-3.57c0.49-2.16,0.77-3.48,0.83-3.94c0.09-1.45,0.2-2.91,0.32-4.36c0.22-2.32,0.59-3.48,1.11-3.48
				c0.06,0,0.28,0.02,0.65,0.05c5.01,0.65,12.42,0.97,22.22,0.97c2.78,0,7.92-0.29,15.4-0.88c4.02-0.31,6.05-0.46,6.08-0.46
				c0.62,0,0.97,0.04,1.07,0.12c0.09,0.08,0.15,0.38,0.19,0.9c0,0.84-0.03,2-0.09,3.48c-0.06,1.64-0.09,2.8-0.09,3.48
				c0,0.77,0.1,1.91,0.3,3.41S82.23,113.04,82.23,113.78z"/>
			<path class="st3" d="M148.37,163.51c0,0.56-0.39,0.94-1.16,1.16c-0.93,0.25-3.8,0.37-8.63,0.37c-4.42,0-7.27-0.12-8.54-0.37
				c-1.05-0.22-1.72-0.91-1.99-2.09c-1.05-4.45-1.87-6.83-2.46-7.14c-0.5-0.22-4.64-0.33-12.43-0.33c-5.26,0-8.06,0.14-8.4,0.42
				c-0.53,0.5-1.11,2.15-1.76,4.96c-0.59,2.57-1.3,3.96-2.13,4.17c-1.05,0.25-4.58,0.37-10.58,0.37c-4.73,0-7.1-0.45-7.1-1.35
				c0-0.8,3.49-10.68,10.48-29.64c7.58-20.5,11.69-31.78,12.34-33.82c0.37-1.17,0.8-1.76,1.3-1.76c0.83,0,2.13,0.08,3.87,0.23
				c1.75,0.16,3.05,0.23,3.92,0.23c0.83,0,2.06-0.05,3.69-0.16c1.62-0.11,2.84-0.16,3.64-0.16c0.59,0,1.13,0.51,1.62,1.53
				c1.51,3.25,5.94,14.38,13.27,33.4C144.69,152.68,148.37,162.67,148.37,163.51z M115.49,121.25c-0.65,1.36-1.75,4.31-3.29,8.86
				c-1.67,4.82-2.5,7.65-2.5,8.49c0,0.56,0.93,0.87,2.78,0.93c0.96,0.06,2.54,0.09,4.73,0.09c2.04,0,3.17-0.25,3.39-0.74
				c0.06-0.15,0.09-0.37,0.09-0.65c0-1.02-0.71-3.83-2.13-8.44C117.16,125.33,116.14,122.49,115.49,121.25z"/>
			<path class="st3" d="M195.73,165.46c-2.66,0-6.12-0.06-10.39-0.19c-5.57-0.12-9.03-0.2-10.39-0.23l-13.87-0.19
				c-1.39,0.03-3.39-0.03-5.98-0.19c-0.9-0.15-1.35-0.63-1.35-1.44c0-3.37,0.05-8.42,0.16-15.15c0.11-6.73,0.16-11.77,0.16-15.15
				c0-3.59-0.11-8.96-0.32-16.12c-0.22-7.16-0.32-12.53-0.32-16.12c0-0.68,0.46-1.02,1.39-1.02s2.31,0.05,4.15,0.14
				c1.84,0.09,3.21,0.14,4.1,0.14c1.02,0,2.54-0.05,4.55-0.16c2.01-0.11,3.53-0.16,4.55-0.16c0.46,0,0.68,0.29,0.65,0.88l-0.05,0.6
				c-0.37,5.81-0.79,14.55-1.25,26.21l-0.05,12.25c0,3.96,0.02,6.85,0.05,8.67c0.03,0.37,0.06,0.74,0.09,1.11
				c0.03,0.37,0.26,0.6,0.7,0.7c0.03,0,0.43,0,1.21,0c2.78,0,6.95-0.15,12.5-0.44c5.55-0.29,9.72-0.44,12.5-0.44
				c0.83,0,1.25,0.36,1.25,1.07c0,5.29-0.39,9.85-1.16,13.68c-0.16,0.8-0.48,1.28-0.97,1.44
				C197.48,165.42,196.85,165.46,195.73,165.46z"/>
			<path class="st3" d="M262.16,162.07c0,1.33-0.57,2.2-1.72,2.6c-0.93,0.31-3.37,0.46-7.33,0.46c-3.8,0-6.59-0.16-8.35-0.46
				c-0.83-0.15-1.38-0.32-1.65-0.49c-0.26-0.17-0.6-0.61-1-1.32c-2.26-4.14-4.5-8.29-6.73-12.43c-3.68-6.68-5.88-10.36-6.59-11.04
				c-3.34,1.21-5.01,2.07-5.01,2.6c0,2.32,0.09,5.82,0.28,10.51c0.19,4.69,0.28,8.2,0.28,10.55c0,0.96-0.42,1.5-1.25,1.62
				c-1.61,0.25-4.52,0.37-8.72,0.37c-4.02,0-6.68-0.12-7.98-0.37c-0.9-0.19-1.35-0.67-1.35-1.44c0-3.34,0.16-8.38,0.49-15.12
				c0.32-6.74,0.49-11.8,0.49-15.17c0-3.59-0.16-8.98-0.46-16.17c-0.31-7.19-0.46-12.58-0.46-16.17c0-0.68,0.32-1.02,0.97-1.02
				c0.96,0,2.4,0.05,4.34,0.14s3.38,0.14,4.34,0.14c0.99,0,2.46-0.05,4.41-0.14s3.4-0.14,4.36-0.14c0.53,0,0.79,0.28,0.79,0.83
				c0,2.29-0.12,5.75-0.35,10.37c-0.23,4.62-0.35,8.08-0.35,10.37c0,2.66,0.73,3.99,2.18,3.99c3.68,0,6.54-1,8.58-3.02
				c1.51-1.48,3.05-4.19,4.59-8.12c0.99-3,2.61-7.42,4.87-13.27c0.34-0.77,1.04-1.16,2.09-1.16c0.8,0,2.02,0.05,3.64,0.14
				c1.62,0.09,2.84,0.14,3.64,0.14c0.83,0,2.08-0.03,3.73-0.09c1.65-0.06,2.88-0.09,3.69-0.09c0.74,0,1.11,0.36,1.11,1.07
				c0,1.02-0.65,3.51-1.95,7.47c-3.83,11.69-8.24,18.99-13.22,21.89c-1.02,0.59-1.53,1.07-1.53,1.44c0-0.03,2.85,4.61,8.56,13.92
				C259.31,154.77,262.16,160.31,262.16,162.07z"/>
		</g>
	</g>
</g>
<g id="Layer_9">
</g>
</svg>
