<?xml version="1.0" encoding="utf-8"?>
<!-- Generator: Adobe Illustrator 24.0.1, SVG Export Plug-In . SVG Version: 6.00 Build 0)  -->
<svg version="1.1" xmlns="http://www.w3.org/2000/svg" xmlns:xlink="http://www.w3.org/1999/xlink" x="0px" y="0px"
	 viewBox="0 0 300 300" style="enable-background:new 0 0 300 300;" xml:space="preserve">
<style type="text/css">
	.st0{display:none;}
	.st1{display:inline;fill:#010202;}
	.st2{fill:#FFFFFF;}
	.st3{fill:none;stroke:#FFFFFF;stroke-miterlimit:10;}
</style>
<g id="Layer_6" class="st0">
	<rect x="0" y="1.21" class="st1" width="300" height="300"/>
</g>
<g id="Layer_2">
</g>
<g id="Layer_7">
</g>
<g id="Layer_3">
</g>
<g id="Layer_8">
	<g>
	</g>
</g>
<g id="Layer_9">
	<path class="st2" d="M177.04,296.1c-13.29,0-23.7-13.63-23.7-31.03c0-17.4,10.41-31.03,23.7-31.03s23.7,13.63,23.7,31.03
		C200.74,282.47,190.33,296.1,177.04,296.1z M177.04,248.04c-4.58,0-9.7,7.28-9.7,17.03c0,9.75,5.12,17.03,9.7,17.03
		s9.7-7.28,9.7-17.03C186.74,255.32,181.62,248.04,177.04,248.04z M114.19,296.1c-13.29,0-23.7-13.63-23.7-31.03
		c0-17.4,10.41-31.03,23.7-31.03s23.7,13.63,23.7,31.03C137.89,282.47,127.48,296.1,114.19,296.1z M114.19,248.04
		c-4.58,0-9.7,7.28-9.7,17.03c0,9.75,5.12,17.03,9.7,17.03s9.7-7.28,9.7-17.03C123.89,255.32,118.77,248.04,114.19,248.04z
		 M225.4,218.54H70.85L15.94,54.76h188.4v14H35.4l45.53,135.78h133.46l48-198.22H295v14h-21.6L225.4,218.54z"/>
</g>
</svg>
