<?xml version="1.0" encoding="utf-8"?>
<!-- Generator: Adobe Illustrator 24.0.1, SVG Export Plug-In . SVG Version: 6.00 Build 0)  -->
<svg version="1.1" xmlns="http://www.w3.org/2000/svg" xmlns:xlink="http://www.w3.org/1999/xlink" x="0px" y="0px"
	 viewBox="0 0 300 300" style="enable-background:new 0 0 300 300;" xml:space="preserve">
<style type="text/css">
	.st0{display:none;}
	.st1{display:inline;fill:#010202;}
	.st2{fill:#FFFFFF;}
	.st3{fill:none;stroke:#FFFFFF;stroke-miterlimit:10;}
</style>
<g id="Layer_6" class="st0">
	<rect x="0" y="1.71" class="st1" width="300" height="300"/>
</g>
<g id="Layer_2">
	<path class="st2" d="M270.9,303.38H31.49c-17.33,0-31.44-14.1-31.44-31.44V31.49c0-17.33,14.1-31.44,31.44-31.44H270.9
		c17.33,0,31.44,14.1,31.44,31.44v240.45C302.34,289.27,288.24,303.38,270.9,303.38z M205.48,288.7h65.42
		c9.24,0,16.76-7.52,16.76-16.76V31.49c0-9.24-7.52-16.76-16.76-16.76H31.49c-9.24,0-16.76,7.52-16.76,16.76v240.45
		c0,9.24,7.52,16.76,16.76,16.76h101.49l-0.3-88.91h-21.54v-65.05h22.15l0.67-15.74c0.04-0.54,1.08-13.3,7.62-26.3
		c9.09-18.06,24.19-27.91,43.65-28.48c41.29-1.21,51.92,9.08,54.19,12.26l1.37,1.91v49.77l-35.3-0.35c-0.03,2.1-0.08,4.75-0.12,7.23
		h38.81l-13.04,65.18l-26.71-0.56L205.48,288.7z M147.66,288.7h43.14l-1.23-104.05l29.59,0.62l7.11-35.56h-35.86l0.14-7.48
		c0.1-5.3,0.3-15.88,0.3-17.93c0-5.28,4.25-9.5,11.08-11.02l0.82-0.18l23.36,0.23v-29c-3.82-2.09-14.68-6.18-40.45-5.43
		c-32.84,0.96-36.8,38.31-37.05,41.13l-1.24,29.4h-21.55v35.69h21.49L147.66,288.7z"/>
</g>
<g id="Layer_7">
</g>
<g id="Layer_3">
</g>
<g id="Layer_8">
	<g>
	</g>
</g>
<g id="Layer_9">
</g>
</svg>
