<?xml version="1.0" encoding="utf-8"?>
<!-- Generator: Adobe Illustrator 24.0.1, SVG Export Plug-In . SVG Version: 6.00 Build 0)  -->
<svg version="1.1" xmlns="http://www.w3.org/2000/svg" xmlns:xlink="http://www.w3.org/1999/xlink" x="0px" y="0px"
	 viewBox="0 0 300 300" style="enable-background:new 0 0 300 300;" xml:space="preserve">
<style type="text/css">
	.st0{display:none;}
	.st1{display:inline;fill:#010202;}
	.st2{fill:#FFFFFF;}
	.st3{fill:none;stroke:#FFFFFF;stroke-miterlimit:10;}
</style>
<g id="Layer_6" class="st0">
	<rect x="-0.05" class="st1" width="300" height="300"/>
</g>
<g id="Layer_2">
</g>
<g id="Layer_7">
</g>
<g id="Layer_3">
	<path class="st2" d="M249.62,299.82H50.38c-27.68,0-50.2-22.52-50.2-50.2V50.38c0-27.68,22.52-50.2,50.2-50.2h199.24
		c27.68,0,50.2,22.52,50.2,50.2v199.24C299.82,277.3,277.3,299.82,249.62,299.82z M50.38,14.18c-19.96,0-36.2,16.24-36.2,36.2
		v199.24c0,19.96,16.24,36.2,36.2,36.2h199.24c19.96,0,36.2-16.24,36.2-36.2V50.38c0-19.96-16.24-36.2-36.2-36.2H50.38z
		 M115.98,244.89l-0.66-184.42l103.33,91.13L115.98,244.89z M129.43,91.58l0.44,121.77l67.79-61.6L129.43,91.58z"/>
</g>
<g id="Layer_8">
	<g>
	</g>
</g>
<g id="Layer_9">
</g>
</svg>
