<?xml version="1.0" encoding="utf-8"?>
<!-- Generator: Adobe Illustrator 24.0.1, SVG Export Plug-In . SVG Version: 6.00 Build 0)  -->
<svg version="1.1" xmlns="http://www.w3.org/2000/svg" xmlns:xlink="http://www.w3.org/1999/xlink" x="0px" y="0px"
	 viewBox="0 0 300 300" style="enable-background:new 0 0 300 300;" xml:space="preserve">
<style type="text/css">
	.st0{display:none;}
	.st1{display:inline;fill:#010202;}
	.st2{fill:#FFFFFF;}
	.st3{fill:none;stroke:#FFFFFF;stroke-miterlimit:10;}
</style>
<g id="Layer_6" class="st0">
	<rect class="st1" width="300" height="300"/>
</g>
<g id="Layer_2">
	<g>
		<path class="st2" d="M151.37,289.17l-4.13-2.73c-2.66-1.76-65.38-43.44-92.46-73.22c-27.27-26.61-42.9-60.09-42.9-91.88
			c0-30.31,15.97-59.24,44.96-81.46c27.06-20.75,61.93-32.65,95.67-32.65c33.97,0,67.98,11.8,93.31,32.37
			c27.27,22.15,42.29,52.28,42.29,84.85c0,21.65-7.74,43.6-23.01,65.26c-11.78,16.7-28.07,33.29-48.42,49.3
			c-26.65,21.01-61.02,46.93-61.37,47.19L151.37,289.17z M152.52,21.23c-59.78,0-126.63,42.81-126.63,100.11
			c0,28.1,14.15,57.99,38.82,82l0.3,0.31C87,227.92,136.34,262.13,150.88,272c9.82-7.44,35.96-27.29,57.16-44
			c30.15-23.72,66.08-60.93,66.08-103.55C274.12,60.69,211,21.23,152.52,21.23z M150.44,163.45c-14.03,0-26.88-4.85-35.23-13.32
			c-6.36-6.44-9.66-14.43-9.55-23.1c0.3-22.11,20.19-40.1,44.34-40.1c24.09,0,45.22,18.78,45.22,40.19
			C195.23,147.49,175.56,163.45,150.44,163.45z M150,100.93c-16.54,0-30.15,11.79-30.34,26.28c-0.06,4.91,1.79,9.31,5.51,13.08
			c5.66,5.73,15.11,9.15,25.27,9.15c17.26,0,30.78-9.81,30.78-22.33C181.23,114.75,167.87,100.93,150,100.93z"/>
		<path class="st2" d="M150.44,163.45c-14.03,0-26.88-4.85-35.23-13.32c-6.36-6.44-9.66-14.43-9.55-23.1
			c0.3-22.11,20.19-40.1,44.34-40.1c24.09,0,45.22,18.78,45.22,40.19C195.23,147.49,175.56,163.45,150.44,163.45z M150,100.93
			c-16.54,0-30.15,11.79-30.34,26.28c-0.06,4.91,1.79,9.31,5.51,13.08c5.66,5.73,15.11,9.15,25.27,9.15
			c17.26,0,30.78-9.81,30.78-22.33C181.23,114.75,167.87,100.93,150,100.93z"/>
		<path class="st2" d="M150.44,162.45c-13.77,0-26.35-4.75-34.52-13.02c-6.17-6.24-9.37-13.99-9.26-22.39
			c0.29-21.57,19.73-39.11,43.34-39.11c23.56,0,44.22,18.31,44.22,39.19C194.23,146.93,174.99,162.45,150.44,162.45z M150,99.93
			c-17.08,0-31.14,12.23-31.34,27.27c-0.07,5.12,1.94,9.89,5.8,13.8c5.84,5.92,15.56,9.45,25.98,9.45
			c17.82,0,31.78-10.25,31.78-23.33C182.23,114.28,168.45,99.93,150,99.93z"/>
	</g>
</g>
<g id="Layer_7">
</g>
<g id="Layer_3">
</g>
<g id="Layer_8">
	<g>
	</g>
</g>
<g id="Layer_9">
</g>
</svg>
