<svg width="24" height="24" viewBox="0 0 24 24" fill="fff" xmlns="http://www.w3.org/2000/svg">
<mask id="mask0" mask-type="alpha" maskUnits="userSpaceOnUse" x="0" y="0" width="24" height="24">
<path fill-rule="evenodd" clip-rule="evenodd" d="M12 18.3571C17.5228 18.3571 22 14.9193 22 10.6786C22 6.43781 17.5228 3 12 3C6.47715 3 2 6.43781 2 10.6786C2 13.3295 3.74945 15.6666 6.41019 17.0464C6.28391 17.5884 5.95925 18.7207 5.68003 19.6946C5.42877 20.5709 5.2143 21.3189 5.2143 21.3929C5.2143 21.5714 5.2143 21.75 5.57144 21.75C5.84679 21.75 9.18472 19.5388 10.9184 18.3127C11.2737 18.3421 11.6345 18.3571 12 18.3571Z" fill="#fff"/>
</mask>
<g mask="url(#mask0)">
<rect width="24" height="24" fill="#fff"/>
</g>
</svg>
